Description

Rogue Adventures 23

Special Edition Director's Cut. An all she-male and girl cast! No boys allowed, but you've been cleared for a sneak peek into the gonzo adventures these hot, fuckable she-males get into! Watch our trannies get serviced by and abuse the holes of some hot honeys! Anal, vaginal, oral - it's all here and it's all hardcore! Add some bondage, S&M and domination to the mix and you're in for a wild ride you - and these girls - won't forget!
Back to top
Elenco & Estrelas: Rogue Adventures 23

Estrelas: Renee Pornero, Paola Brathy (TVTS), Karol Castro (TVTS), Kaylane Soares (TVTS), Judy Mastronelli, Penelope Charmosa, Sara Sin (TVTS), Danielle Foxxx (TVTS), Vicki Richter (TVTS), Avy Lee Roth, Kemmy, Julie Night, Ariana Jollee, Giovanna Di Pietro (TVTS)
Diretor: Joey Silvera


Format : Matroska
Format version : Version 2
File size : 1.58 GiB
Duration : 2h 32mn
Overall bit rate : 1 485 Kbps
Encoded date : UTC 2013-05-11 09:18:12
Writing application : mkvmerge v5.8.0 ('No Sleep / Pillow') built on Sep 2 2012 15:37:04
Writing library : libebml v1.2.3 + libmatroska v1.3.0

Video
ID : 1
Format : AVC
Format/Info : Advanced Video Codec
Format profile : High@L4.1
Format settings, CABAC : Yes
Format settings, ReFrames : 4 frames
Muxing mode : Header stripping
Codec ID : V_MPEG4/ISO/AVC
Duration : 2h 32mn
Bit rate : 1 263 Kbps
Width : 720 pixels
Height : 400 pixels
Display aspect ratio : 16:9
Frame rate mode : Constant
Frame rate : 29.970 fps
Color space : YUV
Chroma subsampling : 4:2:0
Bit depth : 8 bits
Scan type : Progressive
Bits/(Pixel*Frame) : 0.146
Stream size : 1.34 GiB (85%)
Title : Rogue Adveture#23 ( by fantasma )
Writing library : x264 core 130 r2273 b3065e6
Encoding settings : cabac=1 / ref=3 / deblock=1:0:0 / analyse=0x3:0x113 / me=hex / subme=7 / psy=1 / psy_rd=1.00:0.00 / mixed_ref=1 / me_range=16 / chroma_me=1 / trellis=1 / 8x8dct=1 / cqm=0 / deadzone=21,11 / fast_pskip=1 / chroma_qp_offset=-2 / threads=3 / lookahead_threads=1 / sliced_threads=0 / nr=0 / decimate=1 / interlaced=0 / bluray_compat=0 / constrained_intra=0 / bframes=3 / b_pyramid=2 / b_adapt=1 / b_bias=0 / direct=1 / weightb=1 / open_gop=0 / weightp=2 / keyint=300 / keyint_min=29 / scenecut=40 / intra_refresh=0 / rc_lookahead=40 / rc=crf / mbtree=1 / crf=23.0 / qcomp=0.60 / qpmin=0 / qpmax=69 / qpstep=4 / vbv_maxrate=62500 / vbv_bufsize=78125 / crf_max=0.0 / nal_hrd=none / ip_ratio=1.40 / aq=1:1.00
Language : English
Default : Yes
Forced : No

Audio
ID : 2
Format : AC-3
Format/Info : Audio Coding 3
Mode extension : CM (complete main)
Format settings, Endianness : Big
Muxing mode : Header stripping
Codec ID : A_AC3
Duration : 2h 32mn
Bit rate mode : Constant
Bit rate : 192 Kbps
Channel(s) : 2 channels
Channel positions : Front: L R
Sampling rate : 48.0 KHz
Bit depth : 16 bits
Compression mode : Lossy
Stream size : 209 MiB (13%)
Title : by fantasma
Language : Portuguese
Default : Yes
Forced : No

Text #1
ID : 3
Format : VobSub
Muxing mode : zlib
Codec ID : S_VOBSUB
Codec ID/Info : The same subtitle format used on DVDs
Title : by fantasma
Language : Portuguese
Default : No
Forced : No

Text #2
ID : 4
Format : UTF-8
Codec ID : S_TEXT/UTF8
Codec ID/Info : UTF-8 Plain Text
Title : Credito
Language : Portuguese
Default : Yes
Forced : No

Menu
00:00:00.000 : en:Chapter 01
00:00:44.200 : en:Chapter 02
00:03:12.834 : en:Chapter 03
00:04:38.635 : en:Chapter 04
00:07:35.436 : en:Chapter 05
00:09:59.303 : en:Chapter 06
00:12:10.603 : en:Chapter 07
00:15:32.103 : en:Chapter 08
00:18:07.670 : en:Chapter 09
00:20:46.271 : en:Chapter 10
00:24:30.738 : en:Chapter 11
00:29:53.139 : en:Chapter 12
00:32:55.141 : en:Chapter 13
00:35:30.708 : en:Chapter 14
00:39:05.209 : en:Chapter 15
00:42:43.176 : en:Chapter 16
00:44:54.910 : en:Chapter 17
00:47:14.878 : en:Chapter 18
00:50:15.145 : en:Chapter 19
00:53:34.912 : en:Chapter 20
00:57:05.945 : en:Chapter 21
01:00:11.412 : en:Chapter 22
01:02:24.013 : en:Chapter 23
01:07:12.181 : en:Chapter 24
01:09:59.015 : en:Chapter 25
01:12:28.082 : en:Chapter 26
01:16:38.982 : en:Chapter 27
01:19:13.683 : en:Chapter 28
01:22:28.683 : en:Chapter 29
01:25:37.183 : en:Chapter 30
01:30:57.851 : en:Chapter 31
01:35:00.085 : en:Chapter 32
01:38:06.852 : en:Chapter 33
01:40:10.352 : en:Chapter 34
01:42:23.819 : en:Chapter 35
01:44:13.019 : en:Chapter 36
01:46:23.019 : en:Chapter 37
01:48:46.887 : en:Chapter 38
01:51:35.888 : en:Chapter 39
01:54:32.689 : en:Chapter 40
02:01:06.156 : en:Chapter 41
02:03:18.323 : en:Chapter 42
02:05:43.057 : en:Chapter 43
02:09:29.692 : en:Chapter 44
02:12:03.526 : en:Chapter 45
02:14:15.260 : en:Chapter 46
02:16:30.460 : en:Chapter 47
02:19:03.428 : en:Chapter 48
02:21:46.362 : en:Chapter 49
02:26:43.629 : en:Chapter 50